<svg width="208" height="208" viewBox="0 0 208 208" fill="none" xmlns="http://www.w3.org/2000/svg">
<path fill-rule="evenodd" clip-rule="evenodd" d="M80.5969 16.7874L186.975 78.2047V151.906L80.5969 90.4882V16.7874Z" fill="black"/>
<path fill-rule="evenodd" clip-rule="evenodd" d="M186.975 151.906L123.148 188.756L16.7701 127.339L80.5968 90.4882L186.975 151.906Z" fill="#F2F2F2"/>
<path fill-rule="evenodd" clip-rule="evenodd" d="M16.7701 127.339V132.252L123.148 193.669V188.756L16.7701 127.339Z" fill="#E6E6E6"/>
<path fill-rule="evenodd" clip-rule="evenodd" d="M123.148 193.669L186.975 156.819V151.906L123.148 188.756V193.669Z" fill="#CCCCCC"/>
<path fill-rule="evenodd" clip-rule="evenodd" d="M186.975 78.2047L191.23 75.748L84.852 14.3307L80.5969 16.7874L186.975 78.2047Z" fill="#E6E6E6"/>
<path fill-rule="evenodd" clip-rule="evenodd" d="M80.5969 95.4016L178.465 151.906L144.424 171.559L46.5559 115.055L80.5969 95.4016Z" fill="#B3B3B3"/>
<path fill-rule="evenodd" clip-rule="evenodd" d="M80.5969 139.622L101.872 151.906L84.852 161.732L63.5764 149.449L80.5969 139.622Z" fill="#B3B3B3"/>
<path fill-rule="evenodd" clip-rule="evenodd" d="M84.852 24.1575L182.72 80.6614V144.535L84.852 88.0315V24.1575Z" fill="#365DB8"/>
<path fill-rule="evenodd" clip-rule="evenodd" d="M186.975 78.2047L191.23 75.748V154.362L186.975 156.819V78.2047Z" fill="#CCCCCC"/>
</svg>
