<svg width="80" height="80" viewBox="0 0 70 70" fill="none" xmlns="http://www.w3.org/2000/svg">
<circle cx="30" cy="30" r="30" fill="black"/>
<path fill-rule="evenodd" clip-rule="evenodd" d="M27.1675 41.4338C27.1749 41.6093 27.156 41.7805 27.119 41.9538C27.0541 42.2584 26.9287 42.5807 26.7512 42.8785C26.2466 43.725 25.3894 44.2899 24.2857 44.2899C21.6859 44.2899 20.6655 43.0144 19.3879 39.8205C18.5226 37.6573 18.1145 37.147 17.1429 37.147L17.1429 34.2899C19.7427 34.2899 20.7631 35.5654 22.0407 38.7593C22.906 40.9225 23.3142 41.4328 24.2857 41.4328C24.2857 41.0182 24.2801 40.651 24.2681 40.1538C24.2401 38.9884 24.2369 38.7505 24.2877 38.4389C24.3081 37.7588 24.4836 37.2762 24.8357 36.7972C21.6474 36.1032 19.4971 34.6698 18.2628 32.3449L17.8005 31.2576C17.3501 29.9631 17.1429 28.4965 17.1429 26.8026C17.1429 24.8518 17.7377 23.1076 18.8486 21.6495C18.5021 20.2636 18.5495 18.5703 19.3148 16.658L19.5648 16.0331L20.2058 15.8281C20.2917 15.8006 20.396 15.7758 20.5186 15.7566C21.7668 15.5607 23.543 16.0281 25.8651 17.5155C27.234 17.1982 28.6755 17.038 30.1268 17.038C31.4238 17.038 32.7135 17.1687 33.9452 17.4265C36.2044 16.0117 37.9318 15.568 39.1465 15.7568C39.2676 15.7757 39.3709 15.8 39.456 15.827L40.101 16.0315L40.3514 16.6602C41.0208 18.3413 41.1357 19.8905 40.8921 21.2461C42.1693 22.7786 42.8572 24.6625 42.8572 26.8026C42.8572 28.6068 42.7279 29.9635 42.3564 31.2833L41.9642 32.3595C40.9376 34.682 38.6735 36.1314 35.1822 36.8218C35.5451 37.3242 35.7143 37.8343 35.7143 38.5756V40.0042C35.7143 40.6965 35.7143 40.7178 35.7127 41.4328C35.716 41.4841 35.7203 41.5092 35.7249 41.5249C35.7238 41.5253 35.7143 44.2899 35.7143 44.2899C34.4975 44.2899 33.5927 43.6965 33.1477 42.7604C32.917 42.275 32.8481 41.8116 32.8572 41.4125V38.5756C32.8572 38.4558 32.853 38.4489 32.5613 38.1572C31.7816 37.3775 31.4286 36.7892 31.4286 35.7185V34.4262L32.7144 34.297C36.5419 33.9127 38.6236 32.8497 39.3139 31.2969L39.6364 30.4151C39.893 29.4932 40 28.3704 40 26.8026C40 25.1368 39.4185 23.7607 38.3186 22.6612L37.714 22.0569L37.9608 21.2385C38.18 20.5114 38.2321 19.6511 38.0002 18.6698C37.9616 18.6796 37.9216 18.6903 37.88 18.7018C37.1151 18.9148 36.1601 19.3717 35.0092 20.141L34.4843 20.4918L33.8715 20.3399C32.6863 20.046 31.4127 19.8951 30.1268 19.8951C28.697 19.8951 27.2835 20.077 25.9778 20.433L25.3406 20.6067L24.7955 20.2338C23.6052 19.4195 22.6164 18.9353 21.8235 18.7091C21.7669 18.6929 21.7129 18.6785 21.6617 18.6656C21.3851 19.8013 21.4945 20.7344 21.7746 21.4345L22.1106 22.274L21.4956 22.9369C20.5156 23.9931 20 25.2785 20 26.8026C20 28.198 20.1634 29.3542 20.4627 30.2252L20.8366 31.1101C21.7711 32.8637 23.756 33.9187 27.2951 34.298L28.5715 34.4348V35.7185C28.5715 36.7892 28.2185 37.3775 27.4387 38.1572C27.147 38.4489 27.1429 38.4558 27.1429 38.5756L27.1183 38.8397C27.102 38.9263 27.102 39.15 27.1244 40.0852C27.1348 40.5153 27.1407 40.8557 27.1424 41.2115C27.1594 41.2851 27.162 41.3326 27.1675 41.4338Z" fill="white"/>
</svg>
