<svg width="80" height="80" viewBox="0 0 70 70" fill="none" xmlns="http://www.w3.org/2000/svg">
<circle cx="30.7143" cy="30" r="30" fill="black"/>
<path fill-rule="evenodd" clip-rule="evenodd" d="M19.2857 15.7143H42.1429C43.7208 15.7143 45 16.9935 45 18.5714V41.4286C45 43.0065 43.7208 44.2857 42.1429 44.2857H19.2857C17.7078 44.2857 16.4286 43.0065 16.4286 41.4286V18.5714C16.4286 16.9935 17.7078 15.7143 19.2857 15.7143ZM19.2857 18.5714V41.4286H42.1429V18.5714H19.2857ZM32.1429 25.7143C31.4033 25.7143 30.6218 25.9404 29.9317 26.3602L29.2858 25.7143H27.8572V35.7143H30.7143V30C30.7143 29.1775 31.5628 28.5714 32.1429 28.5714H33.5715C34.1515 28.5714 35 29.1775 35 30V35.7143H37.8572V30C37.8572 27.3531 35.5628 25.7143 33.5715 25.7143H32.1429ZM25 24.2857C25.789 24.2857 26.4286 23.6461 26.4286 22.8571C26.4286 22.0682 25.789 21.4286 25 21.4286C24.2111 21.4286 23.5715 22.0682 23.5715 22.8571C23.5715 23.6461 24.2111 24.2857 25 24.2857ZM23.5715 25.7143V35.7143H26.4286V25.7143H23.5715Z" fill="white"/>
</svg>
