<svg width="152" height="33" viewBox="0 0 152 33" fill="none" xmlns="http://www.w3.org/2000/svg">
<rect x="0.672566" y="0.672566" width="150.655" height="30.9381" fill="white" stroke="white" stroke-width="1.34513"/>
<path d="M55.8634 13.2691H57.6255L59.3472 17.7887H59.3741L61.1094 13.2691H62.7639L60.2216 19.7257H58.4998L55.8634 13.2691ZM63.7398 13.2691H65.354V19.7257H63.7398V13.2691ZM63.5112 11.0765C63.5112 10.8164 63.6053 10.5923 63.7936 10.4039C63.9909 10.2067 64.2375 10.108 64.5335 10.108C64.8294 10.108 65.076 10.2022 65.2733 10.3905C65.4795 10.5698 65.5827 10.7985 65.5827 11.0765C65.5827 11.3545 65.4795 11.5877 65.2733 11.776C65.076 11.9553 64.8294 12.045 64.5335 12.045C64.2375 12.045 63.9909 11.9508 63.7936 11.7625C63.6053 11.5652 63.5112 11.3366 63.5112 11.0765ZM68.4985 17.0623C68.5523 17.5466 68.7406 17.9232 69.0634 18.1923C69.3862 18.4613 69.7763 18.5958 70.2337 18.5958C70.6372 18.5958 70.9735 18.5151 71.2425 18.3537C71.5205 18.1833 71.7626 17.9726 71.9689 17.7215L73.1257 18.5958C72.7491 19.0621 72.3276 19.3939 71.8613 19.5912C71.395 19.7885 70.9062 19.8871 70.3951 19.8871C69.9108 19.8871 69.4535 19.8064 69.0231 19.645C68.5926 19.4836 68.2205 19.2549 67.9066 18.959C67.5927 18.6631 67.3416 18.3088 67.1533 17.8963C66.974 17.4749 66.8843 17.0085 66.8843 16.4974C66.8843 15.9862 66.974 15.5244 67.1533 15.1119C67.3416 14.6904 67.5927 14.3317 67.9066 14.0358C68.2205 13.7399 68.5926 13.5112 69.0231 13.3498C69.4535 13.1884 69.9108 13.1077 70.3951 13.1077C70.8435 13.1077 71.2515 13.1884 71.6192 13.3498C71.9958 13.5022 72.3142 13.7264 72.5742 14.0223C72.8432 14.3183 73.0495 14.6859 73.193 15.1254C73.3454 15.5558 73.4216 16.0535 73.4216 16.6185V17.0623H68.4985ZM71.8075 15.8517C71.7985 15.3764 71.6506 15.0043 71.3636 14.7353C71.0766 14.4573 70.6776 14.3183 70.1664 14.3183C69.6822 14.3183 69.2966 14.4573 69.0096 14.7353C68.7316 15.0133 68.5612 15.3854 68.4985 15.8517H71.8075ZM74.0568 13.2691H75.8055L77.2044 17.7887H77.2313L78.5361 13.2691H80.2848L81.6837 17.7887H81.7106L83.0557 13.2691H84.6833L82.4908 19.7257H80.8901L79.3566 15.3137H79.3297L77.9711 19.7257H76.3032L74.0568 13.2691ZM89.6173 13.2691H91.1507V14.2376H91.1776C91.4108 13.843 91.7246 13.556 92.1192 13.3767C92.5138 13.1973 92.9397 13.1077 93.3971 13.1077C93.8903 13.1077 94.3342 13.1973 94.7288 13.3767C95.1233 13.5471 95.4596 13.7847 95.7376 14.0896C96.0156 14.3945 96.2263 14.7532 96.3698 15.1657C96.5133 15.5782 96.585 16.0221 96.585 16.4974C96.585 16.9727 96.5088 17.4166 96.3564 17.8291C96.2039 18.2416 95.9887 18.6003 95.7107 18.9052C95.4417 19.2101 95.1144 19.4522 94.7288 19.6315C94.3432 19.8019 93.9217 19.8871 93.4643 19.8871C93.1594 19.8871 92.8904 19.8557 92.6573 19.793C92.4241 19.7302 92.2178 19.6495 92.0385 19.5508C91.8591 19.4522 91.7067 19.3491 91.5811 19.2415C91.4556 19.1249 91.3525 19.0128 91.2718 18.9052H91.2314V22.7926H89.6173V13.2691ZM94.9709 16.4974C94.9709 16.2463 94.926 16.0042 94.8364 15.771C94.7557 15.5379 94.6301 15.3316 94.4597 15.1523C94.2983 14.9729 94.101 14.8294 93.8679 14.7218C93.6347 14.6142 93.3702 14.5604 93.0742 14.5604C92.7783 14.5604 92.5138 14.6142 92.2806 14.7218C92.0475 14.8294 91.8457 14.9729 91.6753 15.1523C91.5139 15.3316 91.3883 15.5379 91.2987 15.771C91.218 16.0042 91.1776 16.2463 91.1776 16.4974C91.1776 16.7485 91.218 16.9906 91.2987 17.2238C91.3883 17.4569 91.5139 17.6632 91.6753 17.8425C91.8457 18.0219 92.0475 18.1654 92.2806 18.273C92.5138 18.3806 92.7783 18.4344 93.0742 18.4344C93.3702 18.4344 93.6347 18.3806 93.8679 18.273C94.101 18.1654 94.2983 18.0219 94.4597 17.8425C94.6301 17.6632 94.7557 17.4569 94.8364 17.2238C94.926 16.9906 94.9709 16.7485 94.9709 16.4974ZM98.09 13.2691H99.7042V14.2914H99.7311C99.9104 13.9147 100.166 13.6233 100.498 13.417C100.83 13.2108 101.211 13.1077 101.641 13.1077C101.74 13.1077 101.834 13.1166 101.924 13.1346C102.022 13.1525 102.121 13.1749 102.22 13.2018V14.7622C102.085 14.7263 101.951 14.6994 101.816 14.6815C101.69 14.6546 101.565 14.6411 101.439 14.6411C101.063 14.6411 100.758 14.7128 100.525 14.8563C100.301 14.9908 100.126 15.1478 100 15.3271C99.8835 15.5065 99.8028 15.6858 99.758 15.8652C99.7221 16.0445 99.7042 16.179 99.7042 16.2687V19.7257H98.09V13.2691ZM102.759 16.4974C102.759 15.9862 102.849 15.5244 103.028 15.1119C103.216 14.6904 103.467 14.3317 103.781 14.0358C104.095 13.7399 104.467 13.5112 104.898 13.3498C105.328 13.1884 105.785 13.1077 106.27 13.1077C106.754 13.1077 107.211 13.1884 107.642 13.3498C108.072 13.5112 108.444 13.7399 108.758 14.0358C109.072 14.3317 109.319 14.6904 109.498 15.1119C109.686 15.5244 109.78 15.9862 109.78 16.4974C109.78 17.0085 109.686 17.4749 109.498 17.8963C109.319 18.3088 109.072 18.6631 108.758 18.959C108.444 19.2549 108.072 19.4836 107.642 19.645C107.211 19.8064 106.754 19.8871 106.27 19.8871C105.785 19.8871 105.328 19.8064 104.898 19.645C104.467 19.4836 104.095 19.2549 103.781 18.959C103.467 18.6631 103.216 18.3088 103.028 17.8963C102.849 17.4749 102.759 17.0085 102.759 16.4974ZM104.373 16.4974C104.373 16.7485 104.413 16.9906 104.494 17.2238C104.584 17.4569 104.709 17.6632 104.871 17.8425C105.041 18.0219 105.243 18.1654 105.476 18.273C105.709 18.3806 105.974 18.4344 106.27 18.4344C106.566 18.4344 106.83 18.3806 107.063 18.273C107.296 18.1654 107.494 18.0219 107.655 17.8425C107.826 17.6632 107.951 17.4569 108.032 17.2238C108.121 16.9906 108.166 16.7485 108.166 16.4974C108.166 16.2463 108.121 16.0042 108.032 15.771C107.951 15.5379 107.826 15.3316 107.655 15.1523C107.494 14.9729 107.296 14.8294 107.063 14.7218C106.83 14.6142 106.566 14.5604 106.27 14.5604C105.974 14.5604 105.709 14.6142 105.476 14.7218C105.243 14.8294 105.041 14.9729 104.871 15.1523C104.709 15.3316 104.584 15.5379 104.494 15.771C104.413 16.0042 104.373 16.2463 104.373 16.4974ZM112.933 13.2691V20.1158C112.933 20.5193 112.906 20.8915 112.852 21.2323C112.798 21.582 112.691 21.8824 112.529 22.1335C112.377 22.3936 112.157 22.5953 111.87 22.7388C111.583 22.8823 111.211 22.954 110.754 22.954C110.601 22.954 110.453 22.9451 110.31 22.9271C110.166 22.9092 110.023 22.8778 109.879 22.833L110 21.434C110.09 21.452 110.175 21.4654 110.256 21.4744C110.337 21.4923 110.422 21.5013 110.512 21.5013C110.709 21.5013 110.861 21.4564 110.969 21.3668C111.086 21.2861 111.166 21.1785 111.211 21.0439C111.265 20.9094 111.296 20.7615 111.305 20.6C111.314 20.4386 111.319 20.2817 111.319 20.1292V13.2691H112.933ZM111.09 11.0765C111.09 10.8164 111.184 10.5923 111.372 10.4039C111.57 10.2067 111.816 10.108 112.112 10.108C112.408 10.108 112.655 10.2022 112.852 10.3905C113.058 10.5698 113.161 10.7985 113.161 11.0765C113.161 11.3545 113.058 11.5877 112.852 11.776C112.655 11.9553 112.408 12.045 112.112 12.045C111.816 12.045 111.57 11.9508 111.372 11.7625C111.184 11.5652 111.09 11.3366 111.09 11.0765ZM116.077 17.0623C116.131 17.5466 116.319 17.9232 116.642 18.1923C116.965 18.4613 117.355 18.5958 117.812 18.5958C118.216 18.5958 118.552 18.5151 118.821 18.3537C119.099 18.1833 119.341 17.9726 119.548 17.7215L120.705 18.5958C120.328 19.0621 119.906 19.3939 119.44 19.5912C118.974 19.7885 118.485 19.8871 117.974 19.8871C117.49 19.8871 117.032 19.8064 116.602 19.645C116.171 19.4836 115.799 19.2549 115.485 18.959C115.172 18.6631 114.92 18.3088 114.732 17.8963C114.553 17.4749 114.463 17.0085 114.463 16.4974C114.463 15.9862 114.553 15.5244 114.732 15.1119C114.92 14.6904 115.172 14.3317 115.485 14.0358C115.799 13.7399 116.171 13.5112 116.602 13.3498C117.032 13.1884 117.49 13.1077 117.974 13.1077C118.422 13.1077 118.83 13.1884 119.198 13.3498C119.575 13.5022 119.893 13.7264 120.153 14.0223C120.422 14.3183 120.628 14.6859 120.772 15.1254C120.924 15.5558 121 16.0535 121 16.6185V17.0623H116.077ZM119.386 15.8517C119.377 15.3764 119.229 15.0043 118.942 14.7353C118.655 14.4573 118.256 14.3183 117.745 14.3183C117.261 14.3183 116.875 14.4573 116.588 14.7353C116.31 15.0133 116.14 15.3854 116.077 15.8517H119.386ZM126.922 15.2061C126.734 15.0088 126.536 14.8518 126.33 14.7353C126.124 14.6187 125.913 14.5604 125.698 14.5604C125.402 14.5604 125.137 14.6142 124.904 14.7218C124.671 14.8294 124.469 14.9729 124.299 15.1523C124.138 15.3316 124.012 15.5379 123.922 15.771C123.842 16.0042 123.801 16.2463 123.801 16.4974C123.801 16.7485 123.842 16.9906 123.922 17.2238C124.012 17.4569 124.138 17.6632 124.299 17.8425C124.469 18.0219 124.671 18.1654 124.904 18.273C125.137 18.3806 125.402 18.4344 125.698 18.4344C125.949 18.4344 126.182 18.3851 126.397 18.2864C126.613 18.1788 126.796 18.0264 126.949 17.8291L128.025 18.9859C127.864 19.1473 127.675 19.2863 127.46 19.4029C127.254 19.5195 127.043 19.6136 126.828 19.6854C126.613 19.7571 126.406 19.8064 126.209 19.8333C126.012 19.8692 125.841 19.8871 125.698 19.8871C125.214 19.8871 124.756 19.8064 124.326 19.645C123.895 19.4836 123.523 19.2549 123.209 18.959C122.896 18.6631 122.644 18.3088 122.456 17.8963C122.277 17.4749 122.187 17.0085 122.187 16.4974C122.187 15.9862 122.277 15.5244 122.456 15.1119C122.644 14.6904 122.896 14.3317 123.209 14.0358C123.523 13.7399 123.895 13.5112 124.326 13.3498C124.756 13.1884 125.214 13.1077 125.698 13.1077C126.11 13.1077 126.523 13.1884 126.935 13.3498C127.357 13.5022 127.725 13.7488 128.038 14.0896L126.922 15.2061ZM128.246 14.6411V13.2691H129.578V11.3993H131.192V13.2691H132.967V14.6411H131.192V17.4659C131.192 17.7887 131.25 18.0443 131.367 18.2326C131.492 18.4209 131.734 18.5151 132.093 18.5151C132.236 18.5151 132.393 18.5016 132.564 18.4747C132.734 18.4389 132.869 18.3851 132.967 18.3133V19.6719C132.797 19.7526 132.586 19.8064 132.335 19.8333C132.093 19.8692 131.878 19.8871 131.689 19.8871C131.259 19.8871 130.905 19.8378 130.627 19.7392C130.358 19.6495 130.143 19.5105 129.981 19.3222C129.829 19.1249 129.721 18.8828 129.658 18.5958C129.604 18.3088 129.578 17.977 129.578 17.6004V14.6411H128.246Z" fill="black"/>
<rect x="0.672546" y="0.672607" width="39.6814" height="31.6106" fill="white"/>
<path fill-rule="evenodd" clip-rule="evenodd" d="M18.368 23.9277C18.373 24.0457 18.3603 24.1609 18.3354 24.2775C18.2917 24.4823 18.2074 24.6991 18.088 24.8994C17.7486 25.4687 17.1721 25.8486 16.4298 25.8486C14.6813 25.8486 13.995 24.9908 13.1357 22.8426C12.5538 21.3878 12.2792 21.0446 11.6258 21.0446L11.6258 19.123C13.3744 19.123 14.0606 19.9808 14.9199 22.129C15.5019 23.5838 15.7764 23.927 16.4298 23.927C16.4298 23.6482 16.426 23.4013 16.418 23.0668C16.3992 22.283 16.397 22.123 16.4312 21.9135C16.4448 21.456 16.5629 21.1315 16.7997 20.8093C14.6554 20.3425 13.2091 19.3785 12.379 17.8148L12.0681 17.0835C11.7652 16.2129 11.6258 15.2265 11.6258 14.0873C11.6258 12.7752 12.0258 11.6021 12.773 10.6215C12.5399 9.68936 12.5719 8.55051 13.0865 7.26435L13.2547 6.84409L13.6858 6.70618C13.7436 6.68771 13.8137 6.67104 13.8962 6.6581C14.7357 6.52633 15.9303 6.84071 17.4921 7.84107C18.4127 7.62765 19.3823 7.5199 20.3584 7.5199C21.2306 7.5199 22.0981 7.60784 22.9265 7.78121C24.4459 6.82968 25.6077 6.53125 26.4247 6.65826C26.5062 6.67094 26.5756 6.68729 26.6329 6.70545L27.0667 6.84302L27.2351 7.26585C27.6853 8.39647 27.7626 9.43843 27.5987 10.3502C28.4577 11.3808 28.9204 12.6479 28.9204 14.0873C28.9204 15.3007 28.8334 16.2132 28.5835 17.1008L28.3198 17.8247C27.6293 19.3867 26.1066 20.3615 23.7584 20.8258C24.0025 21.1638 24.1163 21.5068 24.1163 22.0054V22.9662C24.1163 23.4318 24.1163 23.4462 24.1153 23.927C24.1174 23.9615 24.1203 23.9785 24.1235 23.989C24.1227 23.9893 24.1163 25.8486 24.1163 25.8486C23.2979 25.8486 22.6894 25.4495 22.3901 24.8199C22.2349 24.4935 22.1886 24.1818 22.1947 23.9134V22.0054C22.1947 21.9248 22.1919 21.9202 21.9957 21.724C21.4713 21.1996 21.2339 20.8039 21.2339 20.0838V19.2146L22.0987 19.1278C24.6729 18.8693 26.073 18.1544 26.5372 17.11L26.7542 16.5169C26.9268 15.8969 26.9987 15.1417 26.9987 14.0873C26.9987 12.9669 26.6076 12.0414 25.8679 11.3019L25.4613 10.8955L25.6272 10.345C25.7746 9.85605 25.8097 9.27743 25.6537 8.61745C25.6278 8.62402 25.6008 8.63118 25.5729 8.63896C25.0584 8.78219 24.4161 9.08952 23.6421 9.60689L23.2891 9.84286L22.8769 9.74067C22.0798 9.543 21.2232 9.44152 20.3584 9.44152C19.3967 9.44152 18.4461 9.56387 17.5679 9.80328L17.1393 9.92012L16.7727 9.66931C15.9721 9.12166 15.3071 8.79598 14.7738 8.64385C14.7357 8.63298 14.6995 8.62326 14.665 8.6146C14.4789 9.37842 14.5525 10.006 14.741 10.4769L14.9669 11.0415L14.5533 11.4873C13.8942 12.1977 13.5474 13.0622 13.5474 14.0873C13.5474 15.0258 13.6573 15.8034 13.8586 16.3892L14.11 16.9843C14.7386 18.1638 16.0736 18.8733 18.4539 19.1284L19.3123 19.2205V20.0838C19.3123 20.8039 19.0749 21.1996 18.5504 21.724C18.3543 21.9202 18.3515 21.9248 18.3515 22.0054L18.3349 22.183C18.3239 22.2413 18.3239 22.3917 18.339 23.0207C18.346 23.31 18.35 23.5389 18.3511 23.7782C18.3626 23.8277 18.3643 23.8597 18.368 23.9277Z" fill="black"/>
</svg>
