<svg width="152" height="33" viewBox="0 0 152 33" fill="none" xmlns="http://www.w3.org/2000/svg">
<rect x="0.672566" y="0.672566" width="150.655" height="30.9381" fill="white" stroke="white" stroke-width="1.34513"/>
<path d="M56.0404 13.5434H57.8025L59.5242 18.063H59.5512L61.2864 13.5434H62.9409L60.3986 20H58.6768L56.0404 13.5434ZM63.9168 13.5434H65.531V20H63.9168V13.5434ZM63.6882 11.3508C63.6882 11.0907 63.7823 10.8665 63.9706 10.6782C64.1679 10.4809 64.4145 10.3823 64.7105 10.3823C65.0064 10.3823 65.253 10.4765 65.4503 10.6648C65.6565 10.8441 65.7597 11.0728 65.7597 11.3508C65.7597 11.6288 65.6565 11.8619 65.4503 12.0503C65.253 12.2296 65.0064 12.3193 64.7105 12.3193C64.4145 12.3193 64.1679 12.2251 63.9706 12.0368C63.7823 11.8395 63.6882 11.6109 63.6882 11.3508ZM68.6755 17.3366C68.7293 17.8209 68.9176 18.1975 69.2404 18.4665C69.5632 18.7356 69.9533 18.8701 70.4107 18.8701C70.8142 18.8701 71.1505 18.7894 71.4195 18.628C71.6975 18.4576 71.9396 18.2468 72.1459 17.9958L73.3027 18.8701C72.9261 19.3364 72.5046 19.6682 72.0383 19.8655C71.572 20.0628 71.0832 20.1614 70.5721 20.1614C70.0878 20.1614 69.6305 20.0807 69.2001 19.9193C68.7696 19.7579 68.3975 19.5292 68.0836 19.2333C67.7697 18.9373 67.5186 18.5831 67.3303 18.1706C67.151 17.7491 67.0613 17.2828 67.0613 16.7717C67.0613 16.2605 67.151 15.7987 67.3303 15.3862C67.5186 14.9647 67.7697 14.606 68.0836 14.3101C68.3975 14.0142 68.7696 13.7855 69.2001 13.6241C69.6305 13.4627 70.0878 13.3819 70.5721 13.3819C71.0205 13.3819 71.4285 13.4627 71.7962 13.6241C72.1728 13.7765 72.4912 14.0007 72.7512 14.2966C73.0202 14.5926 73.2265 14.9602 73.37 15.3996C73.5224 15.8301 73.5986 16.3278 73.5986 16.8927V17.3366H68.6755ZM71.9845 16.126C71.9755 15.6507 71.8276 15.2786 71.5406 15.0096C71.2536 14.7316 70.8546 14.5926 70.3434 14.5926C69.8592 14.5926 69.4736 14.7316 69.1866 15.0096C68.9086 15.2876 68.7382 15.6597 68.6755 16.126H71.9845ZM74.2338 13.5434H75.9825L77.3814 18.063H77.4083L78.7131 13.5434H80.4618L81.8607 18.063H81.8876L83.2327 13.5434H84.8603L82.6678 20H81.0671L79.5336 15.588H79.5067L78.1481 20H76.4802L74.2338 13.5434ZM89.8212 9.8308H91.4353V20H89.8212V9.8308ZM93.3285 13.5434H94.9426V20H93.3285V13.5434ZM93.0998 11.3508C93.0998 11.0907 93.194 10.8665 93.3823 10.6782C93.5796 10.4809 93.8262 10.3823 94.1221 10.3823C94.418 10.3823 94.6646 10.4765 94.8619 10.6648C95.0682 10.8441 95.1713 11.0728 95.1713 11.3508C95.1713 11.6288 95.0682 11.8619 94.8619 12.0503C94.6646 12.2296 94.418 12.3193 94.1221 12.3193C93.8262 12.3193 93.5796 12.2251 93.3823 12.0368C93.194 11.8395 93.0998 11.6109 93.0998 11.3508ZM95.9214 13.5434H97.6836L99.4053 18.063H99.4322L101.167 13.5434H102.822L100.28 20H98.5579L95.9214 13.5434ZM105.062 17.3366C105.116 17.8209 105.304 18.1975 105.627 18.4665C105.95 18.7356 106.34 18.8701 106.798 18.8701C107.201 18.8701 107.537 18.7894 107.806 18.628C108.084 18.4576 108.327 18.2468 108.533 17.9958L109.69 18.8701C109.313 19.3364 108.891 19.6682 108.425 19.8655C107.959 20.0628 107.47 20.1614 106.959 20.1614C106.475 20.1614 106.017 20.0807 105.587 19.9193C105.157 19.7579 104.784 19.5292 104.47 19.2333C104.157 18.9373 103.906 18.5831 103.717 18.1706C103.538 17.7491 103.448 17.2828 103.448 16.7717C103.448 16.2605 103.538 15.7987 103.717 15.3862C103.906 14.9647 104.157 14.606 104.47 14.3101C104.784 14.0142 105.157 13.7855 105.587 13.6241C106.017 13.4627 106.475 13.3819 106.959 13.3819C107.407 13.3819 107.815 13.4627 108.183 13.6241C108.56 13.7765 108.878 14.0007 109.138 14.2966C109.407 14.5926 109.613 14.9602 109.757 15.3996C109.909 15.8301 109.986 16.3278 109.986 16.8927V17.3366H105.062ZM108.371 16.126C108.362 15.6507 108.214 15.2786 107.927 15.0096C107.641 14.7316 107.241 14.5926 106.73 14.5926C106.246 14.5926 105.86 14.7316 105.573 15.0096C105.296 15.2876 105.125 15.6597 105.062 16.126H108.371ZM118.919 15.3324C118.605 14.893 118.183 14.6733 117.654 14.6733C117.439 14.6733 117.228 14.7271 117.022 14.8347C116.816 14.9423 116.713 15.1172 116.713 15.3593C116.713 15.5566 116.798 15.7001 116.968 15.7897C117.139 15.8794 117.354 15.9556 117.614 16.0184C117.874 16.0812 118.152 16.1484 118.448 16.2202C118.753 16.2829 119.035 16.3861 119.295 16.5296C119.555 16.6641 119.771 16.8524 119.941 17.0945C120.111 17.3366 120.197 17.6684 120.197 18.0899C120.197 18.4755 120.111 18.8028 119.941 19.0719C119.78 19.3319 119.564 19.5427 119.295 19.7041C119.035 19.8655 118.739 19.9821 118.408 20.0538C118.076 20.1255 117.744 20.1614 117.412 20.1614C116.91 20.1614 116.448 20.0897 116.027 19.9462C115.605 19.8027 115.229 19.5427 114.897 19.166L115.973 18.1572C116.179 18.3903 116.399 18.5831 116.632 18.7356C116.874 18.8791 117.166 18.9508 117.506 18.9508C117.623 18.9508 117.744 18.9373 117.87 18.9104C117.995 18.8835 118.112 18.8387 118.219 18.7759C118.327 18.7132 118.412 18.6369 118.475 18.5473C118.547 18.4486 118.583 18.3365 118.583 18.211C118.583 17.9868 118.497 17.8209 118.327 17.7133C118.157 17.6057 117.941 17.5205 117.681 17.4577C117.421 17.386 117.139 17.3232 116.834 17.2694C116.538 17.2066 116.26 17.1124 116 16.9869C115.74 16.8524 115.525 16.6686 115.354 16.4354C115.184 16.2022 115.099 15.8794 115.099 15.4669C115.099 15.1082 115.17 14.7988 115.314 14.5388C115.466 14.2697 115.664 14.05 115.906 13.8796C116.148 13.7093 116.426 13.5837 116.74 13.503C117.054 13.4223 117.372 13.3819 117.695 13.3819C118.125 13.3819 118.551 13.4582 118.973 13.6106C119.394 13.7541 119.735 14.0052 119.995 14.3639L118.919 15.3324ZM121.479 13.5434H123.093V20H121.479V13.5434ZM121.25 11.3508C121.25 11.0907 121.345 10.8665 121.533 10.6782C121.73 10.4809 121.977 10.3823 122.273 10.3823C122.569 10.3823 122.815 10.4765 123.013 10.6648C123.219 10.8441 123.322 11.0728 123.322 11.3508C123.322 11.6288 123.219 11.8619 123.013 12.0503C122.815 12.2296 122.569 12.3193 122.273 12.3193C121.977 12.3193 121.73 12.2251 121.533 12.0368C121.345 11.8395 121.25 11.6109 121.25 11.3508ZM124.193 14.9154V13.5434H125.525V11.6736H127.139V13.5434H128.914V14.9154H127.139V17.7402C127.139 18.063 127.197 18.3186 127.314 18.5069C127.439 18.6952 127.681 18.7894 128.04 18.7894C128.184 18.7894 128.341 18.7759 128.511 18.749C128.681 18.7132 128.816 18.6594 128.914 18.5876V19.9462C128.744 20.0269 128.533 20.0807 128.282 20.1076C128.04 20.1435 127.825 20.1614 127.637 20.1614C127.206 20.1614 126.852 20.1121 126.574 20.0135C126.305 19.9238 126.09 19.7848 125.928 19.5965C125.776 19.3992 125.668 19.1571 125.605 18.8701C125.552 18.5831 125.525 18.2513 125.525 17.8747V14.9154H124.193ZM131.466 17.3366C131.52 17.8209 131.708 18.1975 132.031 18.4665C132.354 18.7356 132.744 18.8701 133.201 18.8701C133.605 18.8701 133.941 18.7894 134.21 18.628C134.488 18.4576 134.73 18.2468 134.936 17.9958L136.093 18.8701C135.716 19.3364 135.295 19.6682 134.829 19.8655C134.362 20.0628 133.874 20.1614 133.362 20.1614C132.878 20.1614 132.421 20.0807 131.99 19.9193C131.56 19.7579 131.188 19.5292 130.874 19.2333C130.56 18.9373 130.309 18.5831 130.121 18.1706C129.941 17.7491 129.852 17.2828 129.852 16.7717C129.852 16.2605 129.941 15.7987 130.121 15.3862C130.309 14.9647 130.56 14.606 130.874 14.3101C131.188 14.0142 131.56 13.7855 131.99 13.6241C132.421 13.4627 132.878 13.3819 133.362 13.3819C133.811 13.3819 134.219 13.4627 134.587 13.6241C134.963 13.7765 135.282 14.0007 135.542 14.2966C135.811 14.5926 136.017 14.9602 136.16 15.3996C136.313 15.8301 136.389 16.3278 136.389 16.8927V17.3366H131.466ZM134.775 16.126C134.766 15.6507 134.618 15.2786 134.331 15.0096C134.044 14.7316 133.645 14.5926 133.134 14.5926C132.65 14.5926 132.264 14.7316 131.977 15.0096C131.699 15.2876 131.529 15.6597 131.466 16.126H134.775Z" fill="black"/>
<path fill-rule="evenodd" clip-rule="evenodd" d="M33 16C33 9.92487 28.0751 5 22 5C15.9249 5 11 9.92487 11 16C11 22.0751 15.9249 27 22 27C28.0751 27 33 22.0751 33 16ZM13.6423 12.6545C14.5557 10.3748 16.3748 8.5557 18.6545 7.64232C18.1196 8.67487 17.7001 9.96224 17.4173 11.4173C15.9622 11.7001 14.6749 12.1196 13.6423 12.6545ZM25.3455 7.64232C25.8804 8.67487 26.2999 9.96224 26.5827 11.4173C28.0378 11.7001 29.3251 12.1196 30.3577 12.6545C29.4443 10.3748 27.6252 8.5557 25.3455 7.64232ZM13 16C13 15.1008 14.6287 14.125 17.1145 13.5382C17.039 14.3308 17 15.155 17 16C17 16.845 17.039 17.6692 17.1145 18.4618C14.6287 17.875 13 16.8992 13 16ZM27 16C27 16.845 26.961 17.6692 26.8855 18.4618C29.3713 17.875 31 16.8992 31 16C31 15.1008 29.3713 14.125 26.8855 13.5382C26.961 14.3308 27 15.155 27 16ZM13.6423 19.3455C14.6749 19.8804 15.9622 20.2999 17.4173 20.5827C17.7001 22.0378 18.1196 23.3251 18.6545 24.3577C16.3748 23.4443 14.5557 21.6252 13.6423 19.3455ZM26.5827 20.5827C26.2999 22.0378 25.8804 23.3251 25.3455 24.3577C27.6252 23.4443 29.4443 21.6252 30.3577 19.3455C29.3251 19.8804 28.0378 20.2999 26.5827 20.5827ZM19 16C19 15.0097 19.0621 14.0597 19.1726 13.1726C20.0597 13.0621 21.0097 13 22 13C22.9903 13 23.9403 13.0621 24.8274 13.1726C24.9379 14.0597 25 15.0097 25 16C25 16.9903 24.9379 17.9403 24.8274 18.8274C23.9403 18.9379 22.9903 19 22 19C21.0097 19 20.0597 18.9379 19.1726 18.8274C19.0621 17.9403 19 16.9903 19 16ZM19.5382 20.8855C20.125 23.3713 21.1008 25 22 25C22.8992 25 23.875 23.3713 24.4618 20.8855C23.6692 20.961 22.845 21 22 21C21.155 21 20.3308 20.961 19.5382 20.8855ZM22 7C21.1008 7 20.125 8.62868 19.5382 11.1145C20.3308 11.039 21.155 11 22 11C22.845 11 23.6692 11.039 24.4618 11.1145C23.875 8.62868 22.8992 7 22 7Z" fill="black"/>
</svg>
